<?xml version="1.0" encoding="UTF-8"?>
<!DOCTYPE svg PUBLIC "-//W3C//DTD SVG 1.1//EN" "http://www.w3.org/Graphics/SVG/1.1/DTD/svg11.dtd">
<svg xmlns="http://www.w3.org/2000/svg" version="1.1" width="5695px" height="5695px" style="shape-rendering:geometricPrecision; text-rendering:geometricPrecision; image-rendering:optimizeQuality; fill-rule:evenodd; clip-rule:evenodd" xmlns:xlink="http://www.w3.org/1999/xlink">
<g><path style="opacity:1" fill="#0ebf00" d="M 2788.5,-0.5 C 2827.5,-0.5 2866.5,-0.5 2905.5,-0.5C 3475.24,14.3686 3994.57,181.869 4463.5,502C 4807.27,741.409 5086.1,1040.58 5300,1399.5C 5553.34,1832.5 5684.84,2300.16 5694.5,2802.5C 5694.5,2832.17 5694.5,2861.83 5694.5,2891.5C 5684.82,3390.94 5554.65,3856.27 5304,4287.5C 5067.54,4686.3 4753.37,5010.14 4361.5,5259C 3956.86,5511.65 3515.86,5654.65 3038.5,5688C 2989.38,5691.08 2940.38,5693.25 2891.5,5694.5C 2861.83,5694.5 2832.17,5694.5 2802.5,5694.5C 2300.16,5684.84 1832.5,5553.34 1399.5,5300C 1040.58,5086.1 741.409,4807.27 502,4463.5C 181.869,3994.57 14.3686,3475.24 -0.5,2905.5C -0.5,2866.5 -0.5,2827.5 -0.5,2788.5C 13.0805,2249.35 164.914,1753.35 455,1300.5C 714.471,903.341 1050.64,588.841 1463.5,357C 1875.77,129.757 2317.44,10.5903 2788.5,-0.5 Z"/></g>
<g><path style="opacity:1" fill="#fefffe" d="M 2792.5,270.5 C 3273.41,262.725 3722.08,378.225 4138.5,617C 4543.31,854.808 4861.81,1177.64 5094,1585.5C 5326.08,2003.17 5435.41,2451.17 5422,2929.5C 5404.48,3412.45 5264.48,3855.78 5002,4259.5C 4737.86,4657.32 4391.36,4960.82 3962.5,5170C 3543.13,5369 3101.8,5450.67 2638.5,5415C 2169.25,5375.06 1742.91,5220.39 1359.5,4951C 969.147,4671.65 676.98,4312.49 483,3873.5C 315.807,3484.17 247.307,3078.01 277.5,2655C 314.354,2184.36 466.854,1756.2 735,1370.5C 993.57,1005.22 1323.4,724.052 1724.5,527C 2062,364.792 2418,279.292 2792.5,270.5 Z"/></g>
<g><path style="opacity:1" fill="#0ebf00" d="M 4480.5,1080.5 C 4481.5,1080.41 4482.33,1080.75 4483,1081.5C 4551.79,1224.15 4629.46,1361.15 4716,1492.5C 4810.09,1637 4911.76,1776 5021,1909.5C 5021.98,1910.76 5022.32,1912.09 5022,1913.5C 4859.67,2033.66 4703.51,2161.83 4553.5,2298C 4374.27,2461.56 4201.1,2631.73 4034,2808.5C 3975.43,2871.31 3917.1,2934.31 3859,2997.5C 3672.72,3204.08 3492.05,3415.08 3317,3630.5C 2983.5,4043.3 2666.16,4467.97 2365,4904.5C 2316.74,4975.36 2268.74,5046.36 2221,5117.5C 2050.14,4907.93 1871.81,4704.26 1686,4506.5C 1376.6,4179.06 1051.1,3870.22 709.5,3580C 641.747,3523.58 573.414,3467.91 504.5,3413C 569.259,3345.92 631.425,3276.75 691,3205.5C 830.01,3038.51 963.677,2867.51 1092,2692.5C 1228.23,2798.37 1360.07,2909.87 1487.5,3027C 1682.38,3207.21 1867.54,3396.37 2043,3594.5C 2078.75,3634.91 2113.75,3675.91 2148,3717.5C 2287.04,3491.7 2436.71,3273.37 2597,3062.5C 2809.86,2784.07 3034.86,2515.07 3272,2255.5C 3557.77,1943.73 3856.27,1644.56 4167.5,1358C 4270.24,1263.41 4374.58,1170.91 4480.5,1080.5 Z"/></g>
</svg>
